<?xml version="1.0" encoding="UTF-8" standalone="no"?>
<!DOCTYPE svg PUBLIC "-//W3C//DTD SVG 1.1//EN" "http://www.w3.org/Graphics/SVG/1.1/DTD/svg11.dtd">
<svg version="1.1" xmlns="http://www.w3.org/2000/svg" xmlns:xlink="http://www.w3.org/1999/xlink" preserveAspectRatio="xMidYMid meet" viewBox="0 0 640 640" width="640" height="640"><defs><path d="M431.92 320C431.92 370.73 390.73 411.92 340 411.92C289.27 411.92 248.08 370.73 248.08 320C248.08 269.27 289.27 228.08 340 228.08C390.73 228.08 431.92 269.27 431.92 320Z" id="fihdJa60s"></path><path d="M340 192.86C341.38 192.86 342.5 193.98 342.5 195.36C342.5 245.72 342.5 394.28 342.5 444.64C342.5 446.02 341.38 447.14 340 447.14C339.5 447.14 340.5 447.14 340 447.14C338.62 447.14 337.5 446.02 337.5 444.64C337.5 394.28 337.5 245.72 337.5 195.36C337.5 193.98 338.62 192.86 340 192.86C340.5 192.86 339.5 192.86 340 192.86Z" id="a1crssFksA"></path><path d="M467.14 320C467.14 321.38 466.02 322.5 464.64 322.5C414.28 322.5 265.72 322.5 215.36 322.5C213.98 322.5 212.86 321.38 212.86 320C212.86 319.5 212.86 320.5 212.86 320C212.86 318.62 213.98 317.5 215.36 317.5C265.72 317.5 414.28 317.5 464.64 317.5C466.02 317.5 467.14 318.62 467.14 320C467.14 320.5 467.14 319.5 467.14 320Z" id="ayFgRg911"></path></defs><g><g><g><use xlink:href="#fihdJa60s" opacity="1" fill="#ea69ba" fill-opacity="0"></use><g><use xlink:href="#fihdJa60s" opacity="1" fill-opacity="0" stroke="#000000" stroke-width="3" stroke-opacity="1"></use></g></g><g><use xlink:href="#a1crssFksA" opacity="1" fill="#000000" fill-opacity="1"></use></g><g><use xlink:href="#ayFgRg911" opacity="1" fill="#000000" fill-opacity="1"></use></g></g></g></svg>